<svg xmlns="http://www.w3.org/2000/svg" xmlns:xlink="http://www.w3.org/1999/xlink" width="500" zoomAndPan="magnify" viewBox="0 0 375 374.999991" height="500" preserveAspectRatio="xMidYMid meet" version="1.2"><defs><clipPath id="15adc7f800"><path d="M 42 137.304688 L 292 137.304688 L 292 278 L 42 278 Z M 42 137.304688 "/></clipPath><clipPath id="58a53447f7"><path d="M 40 137.304688 L 294 137.304688 L 294 280 L 40 280 Z M 40 137.304688 "/></clipPath><clipPath id="a947e5745b"><path d="M 37.136719 137.304688 L 295 137.304688 L 295 283 L 37.136719 283 Z M 37.136719 137.304688 "/></clipPath><clipPath id="decfa2478e"><path d="M 37.136719 181 L 60 181 L 60 222 L 37.136719 222 Z M 37.136719 181 "/></clipPath><clipPath id="ebfb5f9f8e"><path d="M 289 236 L 317.636719 236 L 317.636719 252 L 289 252 Z M 289 236 "/></clipPath><clipPath id="67df56ef95"><path d="M 37.136719 182 L 60 182 L 60 222 L 37.136719 222 Z M 37.136719 182 "/></clipPath><clipPath id="7aed294d78"><path d="M 37.136719 180 L 62 180 L 62 224 L 37.136719 224 Z M 37.136719 180 "/></clipPath><clipPath id="b03f694501"><path d="M 164 273 L 194 273 L 194 303.054688 L 164 303.054688 Z M 164 273 "/></clipPath><clipPath id="48f373a979"><path d="M 289 236 L 317.636719 236 L 317.636719 252 L 289 252 Z M 289 236 "/></clipPath><clipPath id="223def389d"><path d="M 287 234 L 317.636719 234 L 317.636719 254 L 287 254 Z M 287 234 "/></clipPath><clipPath id="d6bc15ad79"><path d="M 37.136719 179 L 62 179 L 62 225 L 37.136719 225 Z M 37.136719 179 "/></clipPath><clipPath id="5770dc013d"><path d="M 163 271 L 195 271 L 195 303.054688 L 163 303.054688 Z M 163 271 "/></clipPath><clipPath id="eabccdca79"><path d="M 286 233 L 317.636719 233 L 317.636719 255 L 286 255 Z M 286 233 "/></clipPath></defs><g id="a5442487f8"><path style=" stroke:none;fill-rule:nonzero;fill:#ffde59;fill-opacity:1;" d="M 64.289062 186.582031 C 78.207031 188.265625 103.257812 205.855469 105.347656 209.640625 C 75.65625 207.464844 59.414062 193.238281 64.289062 186.582031 Z M 64.289062 186.582031 "/><path style=" stroke:none;fill-rule:nonzero;fill:#ffde59;fill-opacity:1;" d="M 64.433594 186.714844 C 59.566406 193.441406 75.648438 207.457031 105.339844 209.628906 C 82.683594 199.328125 65.285156 189.304688 64.433594 186.714844 Z M 64.433594 186.714844 "/><path style="fill:none;stroke-width:0.28;stroke-linecap:butt;stroke-linejoin:miter;stroke:#000000;stroke-opacity:1;stroke-miterlimit:4;" d="M 472.320914 367.350561 C 473.439237 358.304551 485.020837 343.006962 486.527933 342.203085 C 485.193625 360.388411 476.453428 370.333997 472.320914 367.350561 Z M 472.320914 367.350561 " transform="matrix(0,1.627717,-1.632712,0,664.211385,-582.300658)"/><path style="fill:none;stroke-width:0.233;stroke-linecap:round;stroke-linejoin:miter;stroke:#000000;stroke-opacity:1;stroke-miterlimit:4;" d="M 472.450505 367.350561 C 476.583019 370.331605 485.193625 360.481718 486.527933 342.296392 C 480.19957 356.172842 474.041595 366.828998 472.450505 367.350561 Z M 472.450505 367.350561 " transform="matrix(0,1.627717,-1.632712,0,664.211385,-582.300658)"/><path style=" stroke:none;fill-rule:nonzero;fill:#ffde59;fill-opacity:1;" d="M 66.378906 196.59375 C 58.566406 192.738281 44.492188 208.507812 44.722656 235.558594 C 54.082031 214.183594 63.59375 197.574219 66.378906 196.59375 Z M 66.378906 196.59375 "/><path style=" stroke:none;fill-rule:nonzero;fill:#ffde59;fill-opacity:1;" d="M 66.296875 196.253906 C 65.601562 208.9375 48.511719 233.113281 44.488281 235.355469 C 44.257812 208.304688 58.484375 192.398438 66.296875 196.253906 Z M 66.296875 196.253906 "/><path style="fill:none;stroke-width:0.28;stroke-linecap:butt;stroke-linejoin:miter;stroke:#000000;stroke-opacity:1;stroke-miterlimit:4;" d="M 478.349298 366.1591 C 486.659924 366.587356 501.512498 377.90384 502.374039 379.468529 C 485.798383 379.612079 476.026258 370.896233 478.349298 366.1591 Z M 478.349298 366.1591 " transform="matrix(0,1.627717,-1.632712,0,664.211385,-582.300658)"/><path style="fill:none;stroke-width:0.233;stroke-linecap:round;stroke-linejoin:miter;stroke:#000000;stroke-opacity:1;stroke-miterlimit:4;" d="M 478.519686 366.1591 C 476.151049 370.944083 485.83918 379.564229 502.458033 379.423072 C 489.32614 373.690663 479.122044 367.864946 478.519686 366.1591 Z M 478.519686 366.1591 " transform="matrix(0,1.627717,-1.632712,0,664.211385,-582.300658)"/><path style=" stroke:none;fill-rule:nonzero;fill:#ffde59;fill-opacity:1;" d="M 81.984375 226.933594 C 90.492188 237.097656 94.511719 265.546875 93.042969 269.613281 C 73.714844 249.011719 73.324219 228.546875 81.984375 226.933594 Z M 81.984375 226.933594 "/><path style="fill:none;stroke-width:0.28;stroke-linecap:butt;stroke-linejoin:miter;stroke:#000000;stroke-opacity:1;stroke-miterlimit:4;" d="M 497.080004 356.500613 C 503.667549 350.957211 521.663907 349.110207 523.257397 349.72747 C 510.641468 361.567909 498.027939 361.804766 497.080004 356.500613 Z M 497.080004 356.500613 " transform="matrix(0,1.627717,-1.632712,0,664.211385,-582.300658)"/><path style="fill-rule:nonzero;fill:#ffde59;fill-opacity:1;stroke-width:0.233;stroke-linecap:round;stroke-linejoin:miter;stroke:#000000;stroke-opacity:1;stroke-miterlimit:4;" d="M 497.339186 356.500613 C 498.330318 361.804766 510.773459 361.567909 523.430185 349.72747 C 510.03911 354.651217 498.803085 357.40019 497.339186 356.500613 Z M 497.339186 356.500613 " transform="matrix(0,1.627717,-1.632712,0,664.211385,-582.300658)"/><path style=" stroke:none;fill-rule:nonzero;fill:#ffde59;fill-opacity:1;" d="M 122.96875 258.96875 C 130.625 266.605469 136.035156 289.3125 135.1875 292.675781 C 117.941406 277.328125 116.085938 260.792969 122.96875 258.96875 Z M 122.96875 258.96875 "/><path style=" stroke:none;fill-rule:nonzero;fill:#ffde59;fill-opacity:1;" d="M 123.050781 259.246094 C 116.164062 261.066406 118.097656 277.394531 135.265625 292.742188 C 127.148438 275.644531 122.121094 261.207031 123.050781 259.246094 Z M 123.050781 259.246094 "/><path style="fill:none;stroke-width:0.28;stroke-linecap:butt;stroke-linejoin:miter;stroke:#000000;stroke-opacity:1;stroke-miterlimit:4;" d="M 516.749046 331.400987 C 521.699904 326.426998 536.122909 323.584718 537.459616 323.917274 C 528.028268 334.477731 517.869769 335.614164 516.749046 331.400987 Z M 516.749046 331.400987 " transform="matrix(0,1.627717,-1.632712,0,664.211385,-582.300658)"/><path style="fill:none;stroke-width:0.187;stroke-linecap:round;stroke-linejoin:miter;stroke:#000000;stroke-opacity:1;stroke-miterlimit:4;" d="M 517.010628 331.448837 C 518.128951 335.666799 528.160258 334.482516 537.589207 323.967517 C 527.085133 328.939114 518.215345 332.01825 517.010628 331.448837 Z M 517.010628 331.448837 " transform="matrix(0,1.627717,-1.632712,0,664.211385,-582.300658)"/><g clip-rule="nonzero" clip-path="url(#15adc7f800)"><path style=" stroke:none;fill-rule:nonzero;fill:#ffde59;fill-opacity:1;" d="M 43.796875 137.734375 C 45.808594 138.929688 47.042969 140.820312 48.050781 142.640625 C 54.542969 154.207031 57.40625 165.699219 59.648438 178.730469 C 60.1875 181.746094 63.207031 184.757812 64.75 187.84375 C 68.539062 195.269531 70.011719 203.539062 73.875 210.757812 C 74.109375 211.25 75.269531 213.070312 76.347656 213.910156 C 79.90625 216.785156 80.992188 221.96875 84.3125 225.195312 C 96.917969 237.597656 108.519531 250.910156 125.21875 257.78125 C 145.554688 266.121094 166.511719 276.488281 189.632812 275.089844 C 204.246094 274.179688 219.015625 276.210938 232.933594 272.847656 C 253.582031 267.871094 273.992188 261.496094 291.085938 249.722656 L 289.769531 251.753906 C 272.679688 263.527344 252.265625 269.832031 231.621094 274.878906 C 217.703125 278.242188 202.929688 276.210938 188.316406 277.121094 C 165.195312 278.523438 144.242188 268.152344 123.828125 259.8125 C 107.203125 252.945312 95.605469 239.628906 82.921875 227.226562 C 79.675781 224.003906 78.59375 218.816406 74.960938 215.941406 C 73.953125 215.101562 72.714844 213.210938 72.484375 212.789062 C 68.617188 205.503906 67.148438 197.304688 63.4375 189.875 C 61.8125 186.789062 58.875 183.777344 58.332031 180.765625 C 56.089844 167.730469 53.152344 156.238281 46.734375 144.675781 C 45.730469 142.851562 44.492188 140.960938 42.480469 139.699219 L 43.796875 137.734375 "/></g><g clip-rule="nonzero" clip-path="url(#58a53447f7)"><path style="fill:none;stroke-width:0.233;stroke-linecap:butt;stroke-linejoin:miter;stroke:#000000;stroke-opacity:1;stroke-miterlimit:4;" d="M 442.358982 379.990092 C 443.093332 378.757959 444.254852 378.001932 445.373174 377.384669 C 452.479084 373.408349 459.539396 371.654653 467.545243 370.281363 C 469.397916 369.951199 471.248188 368.101803 473.144057 367.156769 C 477.706142 364.836053 482.786591 363.934083 487.221485 361.567909 C 487.523864 361.42436 488.642187 360.71379 489.158151 360.053462 C 490.924429 357.873903 494.109009 357.20879 496.091273 355.175173 C 503.710746 347.454603 511.889382 340.348904 516.11069 330.121004 C 521.234337 317.665695 527.603497 304.829979 526.744356 290.668823 C 526.185195 281.718513 527.433109 272.672504 525.366851 264.148057 C 522.309462 251.501349 518.392933 239.000582 511.159832 228.53104 L 512.407746 229.33731 C 519.640847 239.804459 523.514179 252.307618 526.614765 264.951935 C 528.681022 273.476381 527.433109 282.524783 527.99227 291.475093 C 528.853811 305.636249 522.48225 318.469572 517.358604 330.972731 C 513.139695 341.155174 504.95866 348.258481 497.339186 356.0269 C 495.359323 358.01506 492.172343 358.67778 490.406065 360.902797 C 489.890101 361.52006 488.728581 362.278479 488.469399 362.419636 C 483.993708 364.788203 478.956456 365.687779 474.391971 367.960646 C 472.496102 368.955922 470.645829 370.755076 468.795557 371.087632 C 460.78731 372.460922 453.726998 374.260076 446.623488 378.190939 C 445.502765 378.805809 444.341246 379.564229 443.566099 380.796362 L 442.358982 379.990092 " transform="matrix(0,1.627717,-1.632712,0,664.211385,-582.300658)"/></g><g clip-rule="nonzero" clip-path="url(#a947e5745b)"><path style="fill:none;stroke-width:0.56;stroke-linecap:butt;stroke-linejoin:miter;stroke:#cc1919;stroke-opacity:1;stroke-miterlimit:4;" d="M 512.410146 229.339702 C 519.643246 239.806851 523.516579 252.310011 526.617165 264.95672 C 528.683422 273.481166 527.435508 282.527175 527.99467 291.477485 C 528.85621 305.638641 522.48465 318.471964 517.361004 330.975124 C 513.142095 341.159959 504.96106 348.260873 497.341586 356.029292 C 495.361723 358.019845 492.174743 358.680172 490.410865 360.907582 C 489.8949 361.522452 488.730981 362.280872 488.471799 362.422029 C 483.996108 364.790595 478.958855 365.690172 474.394371 367.965431 C 472.500901 368.958315 470.648229 370.757468 468.797957 371.090025 C 460.78971 372.463315 453.729397 374.262468 446.625888 378.193331 C 445.505165 378.808202 444.343645 379.569014 443.568499 380.798754 " transform="matrix(0,1.627717,-1.632712,0,664.211385,-582.300658)"/></g><g clip-rule="nonzero" clip-path="url(#decfa2478e)"><path style=" stroke:none;fill-rule:nonzero;fill:#ffde59;fill-opacity:1;" d="M 59.175781 182.449219 C 58.480469 195.132812 41.390625 219.3125 37.371094 221.554688 C 37.136719 194.574219 51.367188 178.59375 59.175781 182.449219 Z M 59.175781 182.449219 "/></g><path style=" stroke:none;fill-rule:nonzero;fill:#ffde59;fill-opacity:1;" d="M 58.949219 176.070312 C 72.945312 176.699219 99.621094 192.1875 102.09375 195.832031 C 72.324219 196.039062 54.695312 183.144531 58.949219 176.070312 Z M 58.949219 176.070312 "/><path style=" stroke:none;fill-rule:nonzero;fill:#ffde59;fill-opacity:1;" d="M 72.335938 208.167969 C 84.863281 206.695312 111.152344 216.644531 113.9375 219.519531 C 87.570312 223.933594 69.785156 214.964844 72.335938 208.167969 Z M 72.335938 208.167969 "/><path style=" stroke:none;fill-rule:nonzero;fill:#ffde59;fill-opacity:1;" d="M 75.113281 215.867188 C 80.445312 227.570312 76.195312 256.089844 73.640625 259.59375 C 60.804688 235.207031 66.296875 215.375 75.113281 215.867188 Z M 75.113281 215.867188 "/><path style=" stroke:none;fill-rule:nonzero;fill:#ffde59;fill-opacity:1;" d="M 84.058594 224.703125 C 96.121094 221.269531 123.960938 226.949219 127.207031 229.332031 C 102.074219 237.8125 82.898438 231.851562 84.058594 224.703125 Z M 84.058594 224.703125 "/><path style=" stroke:none;fill-rule:nonzero;fill:#ffde59;fill-opacity:1;" d="M 94.542969 235.773438 C 105.367188 232.691406 130.421875 237.808594 133.359375 239.980469 C 110.777344 247.617188 93.457031 242.152344 94.542969 235.773438 Z M 94.542969 235.773438 "/><path style=" stroke:none;fill-rule:nonzero;fill:#ffde59;fill-opacity:1;" d="M 93.429688 238.71875 C 105.804688 244.605469 122.816406 268.921875 123.277344 273.128906 C 96.214844 261.914062 86.316406 243.480469 93.429688 238.71875 Z M 93.429688 238.71875 "/><path style=" stroke:none;fill-rule:nonzero;fill:#ffde59;fill-opacity:1;" d="M 107.585938 247.054688 C 117.640625 242.355469 143.3125 243.410156 146.636719 245.089844 C 125.835938 256.164062 107.742188 253.570312 107.585938 247.054688 Z M 107.585938 247.054688 "/><path style=" stroke:none;fill-rule:nonzero;fill:#ffde59;fill-opacity:1;" d="M 122.707031 256.300781 C 133.917969 251.113281 162.375 252.304688 166.085938 254.125 C 142.964844 266.460938 122.9375 263.519531 122.707031 256.300781 Z M 122.707031 256.300781 "/><path style=" stroke:none;fill-rule:nonzero;fill:#ffde59;fill-opacity:1;" d="M 141.777344 264.566406 C 152.445312 258.472656 180.902344 257.417969 184.769531 258.960938 C 162.960938 273.046875 142.625 271.785156 141.777344 264.566406 Z M 141.777344 264.566406 "/><path style=" stroke:none;fill-rule:nonzero;fill:#ffde59;fill-opacity:1;" d="M 174.445312 274.609375 C 181.40625 266.484375 205.222656 257.652344 209.011719 257.863281 C 195.324219 275.871094 177.695312 280.429688 174.445312 274.609375 Z M 174.445312 274.609375 "/><path style=" stroke:none;fill-rule:nonzero;fill:#ffde59;fill-opacity:1;" d="M 167.898438 274.742188 C 177.949219 279.503906 191.714844 299.199219 192.101562 302.632812 C 170.21875 293.523438 162.179688 278.59375 167.898438 274.742188 Z M 167.898438 274.742188 "/><path style=" stroke:none;fill-rule:nonzero;fill:#ffde59;fill-opacity:1;" d="M 187.539062 276.351562 C 198.828125 277.753906 219.167969 291.980469 220.867188 295.0625 C 196.820312 293.3125 183.597656 281.746094 187.539062 276.351562 Z M 187.539062 276.351562 "/><path style=" stroke:none;fill-rule:nonzero;fill:#ffde59;fill-opacity:1;" d="M 219.019531 274.660156 C 220.410156 265.480469 234.484375 248.941406 237.578125 247.539062 C 235.878906 267.160156 224.433594 277.882812 219.019531 274.660156 Z M 219.019531 274.660156 "/><path style=" stroke:none;fill-rule:nonzero;fill:#ffde59;fill-opacity:1;" d="M 241.664062 271.304688 C 252.953125 269.976562 276.617188 278.945312 279.167969 281.539062 C 255.425781 285.53125 239.421875 277.472656 241.664062 271.304688 Z M 241.664062 271.304688 "/><path style=" stroke:none;fill-rule:nonzero;fill:#ffde59;fill-opacity:1;" d="M 231.230469 273.339844 C 234.015625 262.339844 253.117188 243.484375 257.058594 242.085938 C 252.652344 265.84375 237.417969 277.824219 231.230469 273.339844 Z M 231.230469 273.339844 "/><path style=" stroke:none;fill-rule:nonzero;fill:#ffde59;fill-opacity:1;" d="M 244.769531 269.695312 C 249.5625 259.253906 272.066406 243.695312 276.164062 242.996094 C 267.269531 265.628906 250.027344 275.019531 244.769531 269.695312 Z M 244.769531 269.695312 "/><path style=" stroke:none;fill-rule:nonzero;fill:#ffde59;fill-opacity:1;" d="M 282.1875 256.933594 C 290.386719 253.078125 311.109375 253.992188 313.816406 255.320312 C 296.957031 264.292969 282.34375 262.1875 282.1875 256.933594 Z M 282.1875 256.933594 "/><g clip-rule="nonzero" clip-path="url(#ebfb5f9f8e)"><path style=" stroke:none;fill-rule:nonzero;fill:#ffde59;fill-opacity:1;" d="M 289.375 249.851562 C 294.941406 243.195312 314.195312 236.046875 317.289062 236.257812 C 306.152344 250.835938 291.921875 254.550781 289.375 249.851562 Z M 289.375 249.851562 "/></g><path style=" stroke:none;fill-rule:nonzero;fill:#ffde59;fill-opacity:1;" d="M 70.3125 206.6875 C 69.617188 219.441406 52.527344 243.617188 48.503906 245.792969 C 48.273438 218.8125 62.503906 202.902344 70.3125 206.6875 Z M 70.3125 206.6875 "/><path style=" stroke:none;fill-rule:nonzero;fill:#ffde59;fill-opacity:1;" d="M 192.257812 275.929688 C 191.253906 276.839844 201.695312 267.308594 223.191406 264.015625 C 207.800781 280.90625 194.886719 281.957031 192.257812 275.929688 Z M 192.257812 275.929688 "/><path style=" stroke:none;fill-rule:nonzero;fill:#ffde59;fill-opacity:1;" d="M 136.125 263.460938 C 148.578125 269.417969 165.511719 293.667969 166.054688 297.941406 C 138.910156 286.660156 129.011719 268.296875 136.125 263.460938 Z M 136.125 263.460938 "/><path style=" stroke:none;fill-rule:nonzero;fill:#ffde59;fill-opacity:1;" d="M 221.796875 274.742188 C 234.632812 276.351562 252.417969 288.546875 255.121094 293.453125 C 230.996094 291.699219 217.851562 280.136719 221.796875 274.742188 Z M 221.796875 274.742188 "/><path style="fill-rule:nonzero;fill:#ffde59;fill-opacity:1;stroke-width:0.187;stroke-linecap:round;stroke-linejoin:miter;stroke:#000000;stroke-opacity:1;stroke-miterlimit:4;" d="M 485.709589 362.419636 C 489.887701 363.981933 495.311326 353.18462 492.642711 337.035304 C 490.058089 350.720354 486.959903 361.615759 485.709589 362.419636 Z M 485.709589 362.419636 " transform="matrix(0,1.627717,-1.632712,0,664.211385,-582.300658)"/><g clip-rule="nonzero" clip-path="url(#67df56ef95)"><path style=" stroke:none;fill-rule:nonzero;fill:#ffde59;fill-opacity:1;" d="M 59.257812 182.792969 C 51.449219 178.9375 37.375 194.703125 37.609375 221.753906 C 46.964844 200.378906 56.476562 183.769531 59.257812 182.792969 Z M 59.257812 182.792969 "/></g><g clip-rule="nonzero" clip-path="url(#7aed294d78)"><path style="fill:none;stroke-width:0.233;stroke-linecap:round;stroke-linejoin:miter;stroke:#000000;stroke-opacity:1;stroke-miterlimit:4;" d="M 470.041071 370.520612 C 467.672435 375.303202 477.358166 383.923348 493.977019 383.779798 C 480.845125 378.049782 470.64103 372.224066 470.041071 370.520612 Z M 470.041071 370.520612 " transform="matrix(0,1.627717,-1.632712,0,664.211385,-582.300658)"/></g><path style="fill-rule:nonzero;fill:#ffde59;fill-opacity:1;stroke-width:0.233;stroke-linecap:round;stroke-linejoin:miter;stroke:#000000;stroke-opacity:1;stroke-miterlimit:4;" d="M 466.040547 370.621096 C 470.34585 373.176277 478.181309 362.520121 478.051718 344.286945 C 472.841678 358.732807 467.58844 369.955984 466.040547 370.621096 Z M 466.040547 370.621096 " transform="matrix(0,1.627717,-1.632712,0,664.211385,-582.300658)"/><path style="fill-rule:nonzero;fill:#ffde59;fill-opacity:1;stroke-width:0.233;stroke-linecap:round;stroke-linejoin:miter;stroke:#000000;stroke-opacity:1;stroke-miterlimit:4;" d="M 490.278874 360.720968 C 489.978895 366.118428 502.076459 369.434421 517.058625 361.620544 C 502.981197 362.520121 491.485991 361.998558 490.278874 360.720968 Z M 490.278874 360.720968 " transform="matrix(0,1.627717,-1.632712,0,664.211385,-582.300658)"/><path style="fill-rule:nonzero;fill:#ffde59;fill-opacity:1;stroke-width:0.187;stroke-linecap:round;stroke-linejoin:miter;stroke:#000000;stroke-opacity:1;stroke-miterlimit:4;" d="M 495.829691 355.280442 C 500.221387 355.991012 503.881135 344.29173 498.671094 328.948683 C 498.284721 342.872983 496.99121 354.191859 495.829691 355.280442 Z M 495.829691 355.280442 " transform="matrix(0,1.627717,-1.632712,0,664.211385,-582.300658)"/><path style="fill-rule:nonzero;fill:#ffde59;fill-opacity:1;stroke-width:0.187;stroke-linecap:round;stroke-linejoin:miter;stroke:#000000;stroke-opacity:1;stroke-miterlimit:4;" d="M 502.630821 348.870958 C 506.590548 349.533678 509.863922 339.018679 505.169846 325.14223 C 504.867467 337.741089 503.66275 347.921139 502.630821 348.870958 Z M 502.630821 348.870958 " transform="matrix(0,1.627717,-1.632712,0,664.211385,-582.300658)"/><path style="fill:none;stroke-width:0.233;stroke-linecap:round;stroke-linejoin:miter;stroke:#000000;stroke-opacity:1;stroke-miterlimit:4;" d="M 504.661081 349.629378 C 507.588879 353.988497 518.781706 347.973774 525.66923 331.350745 C 515.421938 342.004508 506.295368 349.725078 504.661081 349.629378 Z M 504.661081 349.629378 " transform="matrix(0,1.627717,-1.632712,0,664.211385,-582.300658)"/><path style="fill-rule:nonzero;fill:#ffde59;fill-opacity:1;stroke-width:0.187;stroke-linecap:round;stroke-linejoin:miter;stroke:#000000;stroke-opacity:1;stroke-miterlimit:4;" d="M 509.609539 340.880037 C 513.569266 340.73888 515.162756 329.798018 508.361625 317.058002 C 509.995913 329.513311 510.427883 339.743604 509.609539 340.880037 Z M 509.609539 340.880037 " transform="matrix(0,1.627717,-1.632712,0,664.211385,-582.300658)"/><path style="fill-rule:nonzero;fill:#ffde59;fill-opacity:1;stroke-width:0.187;stroke-linecap:round;stroke-linejoin:miter;stroke:#000000;stroke-opacity:1;stroke-miterlimit:4;" d="M 515.289947 331.621096 C 519.724841 331.477547 521.445522 319.306944 513.912442 305.14818 C 515.765114 318.974387 516.237882 330.341113 515.289947 331.621096 Z M 515.289947 331.621096 " transform="matrix(0,1.627717,-1.632712,0,664.211385,-582.300658)"/><path style="fill-rule:nonzero;fill:#ffde59;fill-opacity:1;stroke-width:0.187;stroke-linecap:round;stroke-linejoin:miter;stroke:#000000;stroke-opacity:1;stroke-miterlimit:4;" d="M 520.370396 319.940954 C 524.762093 319.371541 525.53724 307.105238 516.883437 293.702502 C 519.808835 307.294245 521.18874 318.613121 520.370396 319.940954 Z M 520.370396 319.940954 " transform="matrix(0,1.627717,-1.632712,0,664.211385,-582.300658)"/><path style="fill-rule:nonzero;fill:#ffde59;fill-opacity:1;stroke-width:0.187;stroke-linecap:round;stroke-linejoin:miter;stroke:#000000;stroke-opacity:1;stroke-miterlimit:4;" d="M 526.54037 299.930157 C 530.113724 297.987454 527.315517 287.285841 516.249881 278.900159 C 522.535047 289.415158 526.842749 298.509017 526.54037 299.930157 Z M 526.54037 299.930157 " transform="matrix(0,1.627717,-1.632712,0,664.211385,-582.300658)"/><path style=" stroke:none;fill-rule:nonzero;fill:#ffde59;fill-opacity:1;" d="M 168.0625 274.953125 C 162.339844 278.804688 170.304688 293.59375 192.1875 302.632812 C 178.113281 289.109375 167.90625 277.125 168.0625 274.953125 Z M 168.0625 274.953125 "/><g clip-rule="nonzero" clip-path="url(#b03f694501)"><path style="fill:none;stroke-width:0.187;stroke-linecap:round;stroke-linejoin:miter;stroke:#000000;stroke-opacity:1;stroke-miterlimit:4;" d="M 526.660362 303.88016 C 529.026599 307.38516 538.112371 302.50687 543.665588 289.104134 C 535.357362 297.72428 527.99467 303.97586 526.660362 303.88016 Z M 526.660362 303.88016 " transform="matrix(0,1.627717,-1.632712,0,664.211385,-582.300658)"/></g><path style="fill-rule:nonzero;fill:#ffde59;fill-opacity:1;stroke-width:0.187;stroke-linecap:round;stroke-linejoin:miter;stroke:#000000;stroke-opacity:1;stroke-miterlimit:4;" d="M 527.601097 291.850714 C 530.958465 294.26713 537.934784 286.261854 539.009909 271.533678 C 533.886263 282.804704 528.892208 291.42485 527.601097 291.850714 Z M 527.601097 291.850714 " transform="matrix(0,1.627717,-1.632712,0,664.211385,-582.300658)"/><path style="fill-rule:nonzero;fill:#ffde59;fill-opacity:1;stroke-width:0.187;stroke-linecap:round;stroke-linejoin:miter;stroke:#000000;stroke-opacity:1;stroke-miterlimit:4;" d="M 526.530771 272.670111 C 528.553831 269.401968 522.009483 262.439819 509.955115 261.399085 C 521.19114 267.602815 525.842018 269.923531 526.530771 272.670111 Z M 526.530771 272.670111 " transform="matrix(0,1.627717,-1.632712,0,664.211385,-582.300658)"/><path style="fill-rule:nonzero;fill:#ffde59;fill-opacity:1;stroke-width:0.187;stroke-linecap:round;stroke-linejoin:miter;stroke:#000000;stroke-opacity:1;stroke-miterlimit:4;" d="M 524.500511 258.700355 C 528.289849 260.119102 533.154314 250.412765 530.74248 235.871203 C 528.417041 248.185356 525.662031 257.941935 524.500511 258.700355 Z M 524.500511 258.700355 " transform="matrix(0,1.627717,-1.632712,0,664.211385,-582.300658)"/><path style="fill-rule:nonzero;fill:#ffde59;fill-opacity:1;stroke-width:0.187;stroke-linecap:round;stroke-linejoin:miter;stroke:#000000;stroke-opacity:1;stroke-miterlimit:4;" d="M 525.710028 265.191184 C 528.465037 261.401478 521.145543 252.211919 506.595347 249.513188 C 517.313007 256.760044 525.450845 263.628887 525.710028 265.191184 Z M 525.710028 265.191184 " transform="matrix(0,1.627717,-1.632712,0,664.211385,-582.300658)"/><path style="fill-rule:nonzero;fill:#ffde59;fill-opacity:1;stroke-width:0.187;stroke-linecap:round;stroke-linejoin:miter;stroke:#000000;stroke-opacity:1;stroke-miterlimit:4;" d="M 523.470982 256.898809 C 526.741956 253.678516 521.015952 243.213759 507.065715 237.766056 C 516.494664 246.953223 523.425385 255.291055 523.470982 256.898809 Z M 523.470982 256.898809 " transform="matrix(0,1.627717,-1.632712,0,664.211385,-582.300658)"/><path style="fill-rule:nonzero;fill:#ffde59;fill-opacity:1;stroke-width:0.187;stroke-linecap:round;stroke-linejoin:miter;stroke:#000000;stroke-opacity:1;stroke-miterlimit:4;" d="M 515.68112 233.930893 C 518.908897 233.835193 520.156811 224.97819 514.646791 214.654591 C 516.024296 224.693484 516.367473 233.028924 515.68112 233.930893 Z M 515.68112 233.930893 " transform="matrix(0,1.627717,-1.632712,0,664.211385,-582.300658)"/><g clip-rule="nonzero" clip-path="url(#48f373a979)"><path style=" stroke:none;fill-rule:nonzero;fill:#ffde59;fill-opacity:1;" d="M 289.375 249.933594 C 292.003906 254.628906 306.074219 250.984375 317.132812 236.410156 C 303.292969 244.679688 291.226562 250.355469 289.375 249.933594 Z M 289.375 249.933594 "/></g><g clip-rule="nonzero" clip-path="url(#223def389d)"><path style="fill:none;stroke-width:0.187;stroke-linecap:round;stroke-linejoin:miter;stroke:#000000;stroke-opacity:1;stroke-miterlimit:4;" d="M 511.289423 229.578951 C 514.174024 227.968805 511.934979 219.351051 502.981197 212.577908 C 508.061646 221.054505 511.548605 228.44491 511.289423 229.578951 Z M 511.289423 229.578951 " transform="matrix(0,1.627717,-1.632712,0,664.211385,-582.300658)"/></g><path style="fill-rule:nonzero;fill:#ffde59;fill-opacity:1;stroke-width:0.233;stroke-linecap:round;stroke-linejoin:miter;stroke:#000000;stroke-opacity:1;stroke-miterlimit:4;" d="M 484.98004 363.749861 C 482.611403 368.486994 492.299534 377.10714 508.87519 376.963591 C 495.743297 371.281424 485.539201 365.455708 484.98004 363.749861 Z M 484.98004 363.749861 " transform="matrix(0,1.627717,-1.632712,0,664.211385,-582.300658)"/><path style="fill-rule:nonzero;fill:#ffde59;fill-opacity:1;stroke-width:0.187;stroke-linecap:round;stroke-linejoin:miter;stroke:#000000;stroke-opacity:1;stroke-miterlimit:4;" d="M 527.301118 289.010827 C 531.001662 287.40068 530.31291 279.538954 519.938426 270.112538 C 525.362052 281.19695 527.730688 287.637537 527.301118 289.010827 Z M 527.301118 289.010827 " transform="matrix(0,1.627717,-1.632712,0,664.211385,-582.300658)"/><path style="fill-rule:nonzero;fill:#ffde59;fill-opacity:1;stroke-width:0.233;stroke-linecap:round;stroke-linejoin:miter;stroke:#000000;stroke-opacity:1;stroke-miterlimit:4;" d="M 519.849632 323.489018 C 522.820627 327.845745 534.013454 321.833414 540.903379 305.207993 C 530.656086 315.866541 521.529516 323.584718 519.849632 323.489018 Z M 519.849632 323.489018 " transform="matrix(0,1.627717,-1.632712,0,664.211385,-582.300658)"/><path style="fill-rule:nonzero;fill:#ffde59;fill-opacity:1;stroke-width:0.187;stroke-linecap:round;stroke-linejoin:miter;stroke:#000000;stroke-opacity:1;stroke-miterlimit:4;" d="M 526.139598 272.770596 C 530.444901 275.89519 536.862058 265.382583 537.893986 250.984571 C 532.77034 262.21014 527.430709 272.392582 526.139598 272.770596 Z M 526.139598 272.770596 " transform="matrix(0,1.627717,-1.632712,0,664.211385,-582.300658)"/><path style="fill:none;stroke-width:0.28;stroke-linecap:butt;stroke-linejoin:miter;stroke:#000000;stroke-opacity:1;stroke-miterlimit:4;" d="M 527.169127 289.010827 C 522.218269 283.99138 519.722441 271.581528 519.936026 270.112538 C 530.31291 279.538954 530.872071 287.398288 527.169127 289.010827 Z M 527.169127 289.010827 " transform="matrix(0,1.627717,-1.632712,0,664.211385,-582.300658)"/><g clip-rule="nonzero" clip-path="url(#d6bc15ad79)"><path style="fill:none;stroke-width:0.28;stroke-linecap:butt;stroke-linejoin:miter;stroke:#000000;stroke-opacity:1;stroke-miterlimit:4;" d="M 469.870683 370.520612 C 478.178909 370.944083 493.031484 382.262959 493.893024 383.827648 C 477.319769 383.971198 467.545243 375.255352 469.870683 370.520612 Z M 469.870683 370.520612 " transform="matrix(0,1.627717,-1.632712,0,664.211385,-582.300658)"/></g><path style="fill:none;stroke-width:0.28;stroke-linecap:butt;stroke-linejoin:miter;stroke:#000000;stroke-opacity:1;stroke-miterlimit:4;" d="M 465.910956 370.621096 C 466.29733 361.479387 476.587819 345.138672 478.008521 344.191245 C 478.138112 362.424421 470.216259 373.176277 465.910956 370.621096 Z M 465.910956 370.621096 " transform="matrix(0,1.627717,-1.632712,0,664.211385,-582.300658)"/><path style="fill:none;stroke-width:0.28;stroke-linecap:butt;stroke-linejoin:miter;stroke:#000000;stroke-opacity:1;stroke-miterlimit:4;" d="M 485.579998 362.419636 C 484.634464 354.273204 491.435594 338.028188 492.553917 336.939604 C 495.268129 353.08892 489.75571 363.981933 485.579998 362.419636 Z M 485.579998 362.419636 " transform="matrix(0,1.627717,-1.632712,0,664.211385,-582.300658)"/><path style="fill:none;stroke-width:0.28;stroke-linecap:butt;stroke-linejoin:miter;stroke:#000000;stroke-opacity:1;stroke-miterlimit:4;" d="M 490.360468 360.720968 C 498.066336 357.263818 515.889906 360.625268 517.267411 361.620544 C 502.285245 369.482271 490.058089 366.118428 490.360468 360.720968 Z M 490.360468 360.720968 " transform="matrix(0,1.627717,-1.632712,0,664.211385,-582.300658)"/><path style="fill:none;stroke-width:0.28;stroke-linecap:butt;stroke-linejoin:miter;stroke:#000000;stroke-opacity:1;stroke-miterlimit:4;" d="M 495.7001 355.280442 C 493.504251 347.418716 497.636766 330.085117 498.5847 328.805134 C 503.794741 344.198423 500.091796 355.991012 495.7001 355.280442 Z M 495.7001 355.280442 " transform="matrix(0,1.627717,-1.632712,0,664.211385,-582.300658)"/><path style="fill:none;stroke-width:0.28;stroke-linecap:butt;stroke-linejoin:miter;stroke:#000000;stroke-opacity:1;stroke-miterlimit:4;" d="M 502.549227 348.870958 C 500.526166 341.813109 504.272308 326.230813 505.133848 325.048923 C 509.782327 338.92298 506.468156 349.533678 502.549227 348.870958 Z M 502.549227 348.870958 " transform="matrix(0,1.627717,-1.632712,0,664.211385,-582.300658)"/><path style="fill:none;stroke-width:0.28;stroke-linecap:butt;stroke-linejoin:miter;stroke:#000000;stroke-opacity:1;stroke-miterlimit:4;" d="M 509.479948 340.880037 C 506.379362 334.298294 507.586479 318.242285 508.232034 316.916845 C 515.033165 329.702318 513.439675 340.73888 509.479948 340.880037 Z M 509.479948 340.880037 " transform="matrix(0,1.627717,-1.632712,0,664.211385,-582.300658)"/><path style="fill:none;stroke-width:0.28;stroke-linecap:butt;stroke-linejoin:miter;stroke:#000000;stroke-opacity:1;stroke-miterlimit:4;" d="M 515.160356 331.621096 C 511.716594 324.278541 513.094099 306.471228 513.826048 305.004631 C 521.359128 319.165787 519.59285 331.477547 515.160356 331.621096 Z M 515.160356 331.621096 " transform="matrix(0,1.627717,-1.632712,0,664.211385,-582.300658)"/><path style="fill:none;stroke-width:0.28;stroke-linecap:butt;stroke-linejoin:miter;stroke:#000000;stroke-opacity:1;stroke-miterlimit:4;" d="M 520.240805 319.940954 C 516.235482 312.978804 516.194685 295.123642 516.797043 293.561345 C 525.450845 306.964081 524.632502 319.371541 520.240805 319.940954 Z M 520.240805 319.940954 " transform="matrix(0,1.627717,-1.632712,0,664.211385,-582.300658)"/><path style="fill:none;stroke-width:0.28;stroke-linecap:butt;stroke-linejoin:miter;stroke:#000000;stroke-opacity:1;stroke-miterlimit:4;" d="M 526.410779 299.930157 C 521.071148 295.382031 516.033896 280.275841 516.077093 278.806851 C 527.140329 287.190141 529.981733 297.987454 526.410779 299.930157 Z M 526.410779 299.930157 " transform="matrix(0,1.627717,-1.632712,0,664.211385,-582.300658)"/><g clip-rule="nonzero" clip-path="url(#5770dc013d)"><path style="fill:none;stroke-width:0.28;stroke-linecap:butt;stroke-linejoin:miter;stroke:#000000;stroke-opacity:1;stroke-miterlimit:4;" d="M 526.40118 303.930402 C 529.542563 297.346266 542.199289 289.250076 543.535997 289.106526 C 537.937183 302.509262 528.767417 307.435402 526.40118 303.930402 Z M 526.40118 303.930402 " transform="matrix(0,1.627717,-1.632712,0,664.211385,-582.300658)"/></g><path style="fill:none;stroke-width:0.28;stroke-linecap:butt;stroke-linejoin:miter;stroke:#000000;stroke-opacity:1;stroke-miterlimit:4;" d="M 527.389912 291.951199 C 528.294649 284.608643 537.678001 272.201183 538.885118 271.538463 C 537.807592 286.266639 530.704083 294.365222 527.389912 291.951199 Z M 527.389912 291.951199 " transform="matrix(0,1.627717,-1.632712,0,664.211385,-582.300658)"/><path style="fill:none;stroke-width:0.28;stroke-linecap:butt;stroke-linejoin:miter;stroke:#000000;stroke-opacity:1;stroke-miterlimit:4;" d="M 526.439577 272.670111 C 520.413593 271.818384 510.295892 262.535518 509.734331 261.303385 C 521.791098 262.391969 528.42184 269.401968 526.439577 272.670111 Z M 526.439577 272.670111 " transform="matrix(0,1.627717,-1.632712,0,664.211385,-582.300658)"/><path style="fill:none;stroke-width:0.28;stroke-linecap:butt;stroke-linejoin:miter;stroke:#000000;stroke-opacity:1;stroke-miterlimit:4;" d="M 524.289326 258.839119 C 523.427785 251.498956 529.58576 236.864087 530.574492 235.868811 C 533.029522 250.40798 528.078664 260.212409 524.289326 258.839119 Z M 524.289326 258.839119 " transform="matrix(0,1.627717,-1.632712,0,664.211385,-582.300658)"/><path style="fill:none;stroke-width:0.28;stroke-linecap:butt;stroke-linejoin:miter;stroke:#000000;stroke-opacity:1;stroke-miterlimit:4;" d="M 525.580437 265.191184 C 518.390533 263.389638 506.938524 250.934328 506.376962 249.419881 C 520.972755 252.118611 528.335446 261.401478 525.580437 265.191184 Z M 525.580437 265.191184 " transform="matrix(0,1.627717,-1.632712,0,664.211385,-582.300658)"/><path style="fill:none;stroke-width:0.28;stroke-linecap:butt;stroke-linejoin:miter;stroke:#000000;stroke-opacity:1;stroke-miterlimit:4;" d="M 523.338991 256.898809 C 516.494664 253.726366 507.192906 239.280503 506.892927 237.670357 C 520.843164 243.118059 526.612365 253.678516 523.338991 256.898809 Z M 523.338991 256.898809 " transform="matrix(0,1.627717,-1.632712,0,664.211385,-582.300658)"/><path style="fill:none;stroke-width:0.28;stroke-linecap:butt;stroke-linejoin:miter;stroke:#000000;stroke-opacity:1;stroke-miterlimit:4;" d="M 515.510732 234.069657 C 513.014904 228.717654 514.003636 215.743174 514.5196 214.652198 C 520.02962 224.97819 518.738509 233.97635 515.510732 234.069657 Z M 515.510732 234.069657 " transform="matrix(0,1.627717,-1.632712,0,664.211385,-582.300658)"/><g clip-rule="nonzero" clip-path="url(#eabccdca79)"><path style="fill:none;stroke-width:0.28;stroke-linecap:butt;stroke-linejoin:miter;stroke:#000000;stroke-opacity:1;stroke-miterlimit:4;" d="M 511.159832 229.720108 C 506.854529 226.026102 502.765212 213.807649 502.851606 212.575516 C 511.805388 219.396508 514.08763 228.109962 511.159832 229.720108 Z M 511.159832 229.720108 " transform="matrix(0,1.627717,-1.632712,0,664.211385,-582.300658)"/></g><path style="fill:none;stroke-width:0.28;stroke-linecap:butt;stroke-linejoin:miter;stroke:#000000;stroke-opacity:1;stroke-miterlimit:4;" d="M 484.809651 363.699619 C 493.120278 364.125483 507.929655 375.492209 508.834393 377.054505 C 492.21554 377.198055 482.443415 368.484602 484.809651 363.699619 Z M 484.809651 363.699619 " transform="matrix(0,1.627717,-1.632712,0,664.211385,-582.300658)"/><path style="fill:none;stroke-width:0.28;stroke-linecap:butt;stroke-linejoin:miter;stroke:#000000;stroke-opacity:1;stroke-miterlimit:4;" d="M 519.600049 323.441169 C 523.475782 315.340193 539.103503 305.34915 540.783387 305.1099 C 533.852665 321.735322 522.571044 327.797895 519.600049 323.441169 Z M 519.600049 323.441169 " transform="matrix(0,1.627717,-1.632712,0,664.211385,-582.300658)"/><path style="fill:none;stroke-width:0.28;stroke-linecap:butt;stroke-linejoin:miter;stroke:#000000;stroke-opacity:1;stroke-miterlimit:4;" d="M 526.439577 272.670111 C 527.5603 263.624102 534.145445 252.872246 537.891587 250.836236 C 536.600476 268.217685 529.626557 274.988435 526.439577 272.670111 Z M 526.439577 272.670111 " transform="matrix(0,1.627717,-1.632712,0,664.211385,-582.300658)"/><path style=" stroke:none;fill-rule:nonzero;fill:#ffde59;fill-opacity:1;" d="M 93.367188 239.144531 C 86.25 243.910156 96.070312 262.128906 123.210938 273.339844 C 105.816406 256.660156 93.210938 241.804688 93.367188 239.144531 Z M 93.367188 239.144531 "/><path style="fill:none;stroke-width:0.28;stroke-linecap:butt;stroke-linejoin:miter;stroke:#000000;stroke-opacity:1;stroke-miterlimit:4;" d="M 504.349102 349.67962 C 508.224835 341.581037 523.852556 331.587601 525.489243 331.353137 C 518.599319 347.976167 507.2769 354.036347 504.349102 349.67962 Z M 504.349102 349.67962 " transform="matrix(0,1.627717,-1.632712,0,664.211385,-582.300658)"/><path style=" stroke:none;fill-rule:nonzero;fill:#ffde59;fill-opacity:1;" d="M 273.226562 259.230469 C 277.015625 248.4375 297.972656 231.265625 301.914062 230.144531 C 295.265625 253.484375 278.949219 264.203125 273.226562 259.230469 Z M 273.226562 259.230469 "/><path style="fill-rule:nonzero;fill:#ffde59;fill-opacity:1;stroke-width:0.187;stroke-linecap:round;stroke-linejoin:miter;stroke:#000000;stroke-opacity:1;stroke-miterlimit:4;" d="M 517.049026 239.46951 C 520.106414 235.96451 513.562066 226.066774 499.225456 221.992361 C 509.343158 230.234494 516.919435 237.859363 517.049026 239.46951 Z M 517.049026 239.46951 " transform="matrix(0,1.627717,-1.632712,0,664.211385,-582.300658)"/><path style="fill:none;stroke-width:0.28;stroke-linecap:butt;stroke-linejoin:miter;stroke:#000000;stroke-opacity:1;stroke-miterlimit:4;" d="M 516.919435 239.46951 C 509.902319 236.959787 499.482238 223.461351 499.052668 221.899054 C 513.389278 225.971074 519.976823 235.96451 516.919435 239.46951 Z M 516.919435 239.46951 " transform="matrix(0,1.627717,-1.632712,0,664.211385,-582.300658)"/><path style=" stroke:none;fill-rule:nonzero;fill:#ffde59;fill-opacity:1;" d="M 267.347656 264.0625 C 277.402344 259.367188 303.070312 260.417969 306.398438 262.101562 C 285.597656 273.171875 267.503906 270.578125 267.347656 264.0625 Z M 267.347656 264.0625 "/><path style="fill-rule:nonzero;fill:#ffde59;fill-opacity:1;stroke-width:0.187;stroke-linecap:round;stroke-linejoin:miter;stroke:#000000;stroke-opacity:1;stroke-miterlimit:4;" d="M 520.02002 243.029537 C 524.025344 242.93623 525.616434 231.947518 518.772107 219.209894 C 520.449591 231.662811 520.881561 241.893104 520.02002 243.029537 Z M 520.02002 243.029537 " transform="matrix(0,1.627717,-1.632712,0,664.211385,-582.300658)"/><path style="fill:none;stroke-width:0.28;stroke-linecap:butt;stroke-linejoin:miter;stroke:#000000;stroke-opacity:1;stroke-miterlimit:4;" d="M 519.890429 243.170694 C 516.789843 236.586558 517.99696 220.532942 518.642516 219.252959 C 525.443646 231.992975 523.850156 243.074994 519.890429 243.170694 Z M 519.890429 243.170694 " transform="matrix(0,1.627717,-1.632712,0,664.211385,-582.300658)"/><g style="fill:#0a7207;fill-opacity:1;"><g transform="translate(2.348857, 173.78514)"><path style="stroke:none" d="M 27.140625 -82.59375 L 37.53125 -82.59375 L 58.875 -2.359375 L 63.484375 -2.359375 L 63.484375 0 L 44.71875 0 L 44.71875 -2.359375 L 49.328125 -2.359375 L 43.0625 -25.484375 L 14.390625 -25.484375 L 8.140625 -2.359375 L 12.75 -2.359375 L 12.75 0 L 1.1875 0 L 1.1875 -2.359375 L 5.78125 -2.359375 Z M 42.484375 -27.84375 L 28.671875 -78.828125 L 14.984375 -27.84375 Z M 42.484375 -27.84375 "/></g></g><g style="fill:#0a7207;fill-opacity:1;"><g transform="translate(68.891363, 173.78514)"><path style="stroke:none" d="M 28.5625 -84.484375 C 35.789062 -84.484375 41.488281 -82.457031 45.65625 -78.40625 C 49.832031 -74.351562 51.921875 -68.710938 51.921875 -61.484375 L 51.921875 -56.765625 L 42.484375 -56.765625 L 42.484375 -67.375 C 42.484375 -72.09375 41.164062 -75.726562 38.53125 -78.28125 C 35.894531 -80.84375 32.570312 -82.125 28.5625 -82.125 C 24.539062 -82.125 21.234375 -80.84375 18.640625 -78.28125 C 16.046875 -75.726562 14.75 -72.09375 14.75 -67.375 L 14.75 -15.21875 C 14.75 -10.5 16.046875 -6.859375 18.640625 -4.296875 C 21.234375 -1.742188 24.539062 -0.46875 28.5625 -0.46875 C 32.570312 -0.46875 35.894531 -1.742188 38.53125 -4.296875 C 41.164062 -6.859375 42.484375 -10.5 42.484375 -15.21875 L 42.484375 -39.40625 L 26.4375 -39.40625 L 26.4375 -41.765625 L 51.921875 -41.765625 L 51.921875 -21.125 C 51.921875 -13.96875 49.832031 -8.34375 45.65625 -4.25 C 41.488281 -0.15625 35.789062 1.890625 28.5625 1.890625 C 21.394531 1.890625 15.726562 -0.15625 11.5625 -4.25 C 7.394531 -8.34375 5.3125 -13.96875 5.3125 -21.125 L 5.3125 -61.484375 C 5.3125 -68.710938 7.394531 -74.351562 11.5625 -78.40625 C 15.726562 -82.457031 21.394531 -84.484375 28.5625 -84.484375 Z M 28.5625 -84.484375 "/></g></g><g style="fill:#0a7207;fill-opacity:1;"><g transform="translate(128.119, 173.78514)"><path style="stroke:none" d="M 34.6875 -82.59375 C 37.914062 -82.59375 40.863281 -81.785156 43.53125 -80.171875 C 46.207031 -78.566406 48.351562 -76.425781 49.96875 -73.75 C 51.582031 -71.070312 52.390625 -68.125 52.390625 -64.90625 L 52.390625 -49.796875 C 52.390625 -45.859375 51.1875 -42.394531 48.78125 -39.40625 C 46.382812 -36.414062 43.335938 -34.375 39.640625 -33.28125 C 43.503906 -31.863281 46.257812 -29.1875 47.90625 -25.25 L 57.109375 -2.359375 L 61.59375 -2.359375 L 61.59375 0 L 42.953125 0 L 42.953125 -2.359375 L 47.4375 -2.359375 L 37.53125 -25.84375 C 36.738281 -27.726562 35.554688 -29.238281 33.984375 -30.375 C 32.410156 -31.519531 30.601562 -32.09375 28.5625 -32.09375 L 15.21875 -32.09375 L 15.21875 -2.359375 L 19.828125 -2.359375 L 19.828125 0 L 1.1875 0 L 1.1875 -2.359375 L 5.78125 -2.359375 L 5.78125 -80.234375 L 1.1875 -80.234375 L 1.1875 -82.59375 Z M 15.21875 -80.234375 L 15.21875 -34.453125 L 29.734375 -34.453125 C 33.429688 -34.453125 36.554688 -35.726562 39.109375 -38.28125 C 41.671875 -40.84375 42.953125 -43.929688 42.953125 -47.546875 L 42.953125 -67.140625 C 42.953125 -70.835938 41.671875 -73.941406 39.109375 -76.453125 C 36.554688 -78.972656 33.429688 -80.234375 29.734375 -80.234375 Z M 15.21875 -80.234375 "/></g></g><g style="fill:#0a7207;fill-opacity:1;"><g transform="translate(193.009773, 173.78514)"><path style="stroke:none" d="M 28.5625 -84.484375 C 35.789062 -84.484375 41.488281 -82.457031 45.65625 -78.40625 C 49.832031 -74.351562 51.921875 -68.710938 51.921875 -61.484375 L 51.921875 -21.125 C 51.921875 -13.96875 49.832031 -8.34375 45.65625 -4.25 C 41.488281 -0.15625 35.789062 1.890625 28.5625 1.890625 C 21.394531 1.890625 15.726562 -0.15625 11.5625 -4.25 C 7.394531 -8.34375 5.3125 -13.96875 5.3125 -21.125 L 5.3125 -61.484375 C 5.3125 -68.710938 7.394531 -74.351562 11.5625 -78.40625 C 15.726562 -82.457031 21.394531 -84.484375 28.5625 -84.484375 Z M 28.5625 -82.125 C 24.539062 -82.125 21.234375 -80.84375 18.640625 -78.28125 C 16.046875 -75.726562 14.75 -72.09375 14.75 -67.375 L 14.75 -15.21875 C 14.75 -10.5 16.046875 -6.859375 18.640625 -4.296875 C 21.234375 -1.742188 24.539062 -0.46875 28.5625 -0.46875 C 32.570312 -0.46875 35.894531 -1.742188 38.53125 -4.296875 C 41.164062 -6.859375 42.484375 -10.5 42.484375 -15.21875 L 42.484375 -67.375 C 42.484375 -72.09375 41.164062 -75.726562 38.53125 -78.28125 C 35.894531 -80.84375 32.570312 -82.125 28.5625 -82.125 Z M 28.5625 -82.125 "/></g></g><g style="fill:#0a7207;fill-opacity:1;"><g transform="translate(252.23741, 173.78514)"><path style="stroke:none" d="M 1.1875 -80.234375 L 1.1875 -82.59375 L 46.25 -82.59375 L 46.25 -66.203125 L 38.109375 -66.203125 L 38.109375 -80.234375 L 15.21875 -80.234375 L 15.21875 -36.578125 L 40.59375 -36.578125 L 40.59375 -34.21875 L 15.21875 -34.21875 L 15.21875 -2.359375 L 19.828125 -2.359375 L 19.828125 0 L 1.1875 0 L 1.1875 -2.359375 L 5.78125 -2.359375 L 5.78125 -80.234375 Z M 1.1875 -80.234375 "/></g></g><g style="fill:#0a7207;fill-opacity:1;"><g transform="translate(302.02649, 173.78514)"><path style="stroke:none" d="M 1.1875 -80.234375 L 1.1875 -82.59375 L 19.828125 -82.59375 L 19.828125 -80.234375 L 15.21875 -80.234375 L 15.21875 -2.359375 L 19.828125 -2.359375 L 19.828125 0 L 1.1875 0 L 1.1875 -2.359375 L 5.78125 -2.359375 L 5.78125 -80.234375 Z M 1.1875 -80.234375 "/></g></g><g style="fill:#0a7207;fill-opacity:1;"><g transform="translate(325.151634, 173.78514)"><path style="stroke:none" d="M 1.1875 -80.234375 L 1.1875 -82.59375 L 19.828125 -82.59375 L 19.828125 -80.234375 L 15.21875 -80.234375 L 15.21875 -2.359375 L 38.109375 -2.359375 L 38.109375 -16.40625 L 46.25 -16.40625 L 46.25 0 L 1.1875 0 L 1.1875 -2.359375 L 5.78125 -2.359375 L 5.78125 -80.234375 Z M 1.1875 -80.234375 "/></g></g></g></svg>